<svg xmlns="http://www.w3.org/2000/svg" width="512.001" height="388.002" viewBox="0 0 512.001 388.002">
  <g id="affordable-svg" transform="translate(-277 -9470)">
    <g id="social-care" transform="translate(276.999 9346)">
      <g id="Group_2" data-name="Group 2">
        <g id="Group_1" data-name="Group 1">
          <path id="Path_1" data-name="Path 1" d="M109.834,496.21,94.779,475a10,10,0,1,0-16.308,11.577l15.055,21.207a10,10,0,1,0,16.308-11.578Z"/>
        </g>
      </g>
      <g id="Group_4" data-name="Group 4">
        <g id="Group_3" data-name="Group 3">
          <path id="Path_2" data-name="Path 2" d="M225.206,499.946l-16.384-78.088A147.269,147.269,0,0,0,146.539,329.4l-34.981-23.522a35.189,35.189,0,0,0-44.6,4.553v-120.5a33.476,33.476,0,0,0-54.427-26.11A33.317,33.317,0,0,0,0,189.938V344.99a96.865,96.865,0,0,0,17.975,56.371l17.833,25.121A10,10,0,1,0,52.117,414.9L34.284,389.783A76.97,76.97,0,0,1,20,344.989V189.938a13.476,13.476,0,1,1,26.952,0V312.954a69.871,69.871,0,0,0,18.021,46.913c.5.6,1.01,1.188,1.551,1.761,6.641,7.037,14.449,15.329,21.8,23.145L98.623,395.73c.033.035.069.065.1.1,8.807,9.367,15.3,16.284,15.438,16.428a10,10,0,1,0,14.578-13.691c-.182-.194-11.888-12.659-25.256-26.868l-22.929-24.4c-.058-.062-.111-.127-.169-.189a16.873,16.873,0,0,1,.326-22.115,15.119,15.119,0,0,1,19.686-2.513L135.379,346a127.368,127.368,0,0,1,53.869,79.965l16.385,78.089a10,10,0,1,0,19.573-4.108Z"/>
        </g>
      </g>
      <g id="Group_6" data-name="Group 6">
        <g id="Group_5" data-name="Group 5">
          <path id="Path_3" data-name="Path 3" d="M74.089,445.858l-.064-.09a10,10,0,0,0-16.281,11.616l.064.09a10,10,0,0,0,16.281-11.616Z"/>
        </g>
      </g>
      <g id="Group_8" data-name="Group 8">
        <g id="Group_7" data-name="Group 7">
          <path id="Path_4" data-name="Path 4" d="M499.475,163.829a33.477,33.477,0,0,0-54.427,26.11v120.5a35.189,35.189,0,0,0-44.605-4.553L365.462,329.4a147.263,147.263,0,0,0-62.283,92.455L286.8,499.947a10,10,0,1,0,19.573,4.106l16.384-78.089A127.37,127.37,0,0,1,376.621,346L411.6,322.479a15.118,15.118,0,0,1,19.686,2.512,16.874,16.874,0,0,1,.347,22.092c-.064.07-.125.142-.189.212L383.26,398.566a10,10,0,1,0,14.578,13.691c.136-.144,41-43.591,47.639-50.628.541-.573,1.053-1.164,1.551-1.761a69.876,69.876,0,0,0,18.021-46.913V189.938a13.477,13.477,0,1,1,26.953,0V344.99a76.97,76.97,0,0,1-14.283,44.794L402.168,496.211a10,10,0,1,0,16.308,11.578l75.551-106.427A96.865,96.865,0,0,0,512,344.991V189.938A33.326,33.326,0,0,0,499.475,163.829Z"/>
        </g>
      </g>
    </g>
    <g id="dollar-coin-circle-with-symbol" transform="translate(433 9470)">
      <path id="Path_5" data-name="Path 5" d="M100.322,0C45,0,0,44.912,0,100.118S45,200.235,100.322,200.235s100.322-44.909,100.322-100.118S155.632,0,100.322,0Zm0,187.033a86.915,86.915,0,1,1,87.093-86.915A87.1,87.1,0,0,1,100.322,187.033Zm4.91-99.325-1.874-.6V58.179c4.251.351,7.339,1.5,9.29,3.439q3.682,3.665,3.682,12.113h19.625q0-15.1-9.29-23.324-8.392-7.393-23.294-8.145V31.721H96.4V42.487q-13.633.821-22.022,8.3-9.589,8.6-9.586,23.243,0,11.963,7.952,19.211,7.33,6.654,23.656,11.811v32a15.187,15.187,0,0,1-9.29-4.487q-4.2-4.718-3.737-14.5H62.551l-.081,2.689q0,15.55,8.847,23.776t25.091,9.2v14.8h6.969v-14.88q15.2-.648,24.567-8.819,10.262-8.877,10.271-23.994,0-12.929-7.513-20.411Q123.184,92.872,105.233,87.708Zm-8.847-2.991a31.653,31.653,0,0,1-7.3-3.962q-4.879-3.742-4.874-9.121,0-6.426,4.28-10.021a15.142,15.142,0,0,1,7.884-3.288l.007,26.393Zm16.644,48.511a16.864,16.864,0,0,1-9.671,3.893V107.228c4.651,1.5,8.024,3.256,10.117,5.306a12.63,12.63,0,0,1,4.133,9.721Q117.609,129.257,113.029,133.228Z"/>
    </g>
  </g>
</svg>
