<svg fill="#542585" id="Capa_1" enable-background="new 0 0 512 512" height="512" viewBox="0 0 512 512" width="512" xmlns="http://www.w3.org/2000/svg"><g><g><path d="m83.709 123.579c-21.16 0-38.376-17.225-38.376-38.396 0-21.156 17.216-38.368 38.376-38.368 21.176 0 38.403 17.212 38.403 38.368 0 21.172-17.227 38.396-38.403 38.396zm0-56.764c-10.133 0-18.376 8.24-18.376 18.368 0 10.144 8.243 18.396 18.376 18.396 10.147 0 18.403-8.252 18.403-18.396 0-10.128-8.255-18.368-18.403-18.368z"/></g><g><path d="m502 315.843h-29.21c5.876-19.208 8.851-39.148 8.851-59.46 0-112.118-91.238-203.333-203.385-203.333-39.418 0-78.005 11.544-110.821 32.841-.001-.255.007-.505.004-.762-.027-46.12-37.578-83.629-83.73-83.629-46.137 0-83.676 37.509-83.703 83.629-.403 39.86 19.523 66.012 40.62 93.7 2.109 2.768 22.992 27.674 22.992 27.674 5.229 6.041 10.687 8.624 15.266 9.597-2.661 13.239-4.013 26.731-4.013 40.282 0 112.118 91.238 203.333 203.385 203.333 13.164 0 26.254-1.263 39.068-3.76v44.545c0 5.523 4.478 10 10 10h42.437c5.522 0 10-4.477 10-10s-4.478-10-10-10h-32.437v-154.657h35.788v62.181c0 3.624 1.961 6.964 5.125 8.731 3.162 1.766 7.035 1.684 10.121-.217l26.304-16.208 26.305 16.208c1.606.989 3.425 1.486 5.246 1.486 1.678 0 3.358-.422 4.876-1.269 3.163-1.767 5.124-5.107 5.124-8.731v-62.181s2.534.003 2.556.003c.026 0 33.231-.003 33.231-.003v154.657h-32.436c-5.522 0-10 4.477-10 10s4.478 10 10 10h42.436c5.522 0 10-4.477 10-10v-174.657c0-5.523-4.477-10-10-10zm-337.805-203.022c16.913-13.435 36.031-23.699 56.348-30.432-7.999 8.976-15.398 19.907-22.02 32.682-3.225 6.222-6.208 12.782-8.948 19.625-10.252-2.854-20.009-6.217-29.14-10.059 1.448-3.819 2.727-7.74 3.76-11.816zm18.672 40.747c-8.777 27.998-13.842 59.693-14.691 92.815h-73.01c.684-12.49 2.625-24.873 5.811-36.961.986-.899 1.943-1.87 2.857-2.925 0 0 20.878-24.899 22.986-27.667 9.078-11.913 17.928-23.548 25.045-36.107 9.734 4.136 20.113 7.76 31.002 10.845zm-99.158 43.05c-1.396 0-3.207-1.168-4.964-3.198 0 0-20.142-23.997-22.21-26.712-19.789-25.971-36.878-48.399-36.53-81.419.001-.035.001-.07.001-.105 0-35.115 28.577-63.683 63.703-63.683 35.142 0 63.73 28.568 63.73 63.683 0 .035 0 .07.001.106.349 33.02-16.741 55.448-36.529 81.419-2.068 2.716-22.205 26.706-22.205 26.706-1.762 2.035-3.585 3.203-4.997 3.203zm11.44 69.765h73.027c.848 33.097 5.906 64.769 14.671 92.751-15.7 4.457-30.346 10.045-43.583 16.7-25.613-29.745-41.862-67.767-44.115-109.451zm58.758 124.617c10.907-5.022 22.899-9.34 35.685-12.888 2.736 6.828 5.713 13.374 8.932 19.584 6.632 12.794 14.043 23.739 22.057 32.723-25.045-8.318-47.708-21.897-66.674-39.419zm114.349 47.537c-19.203-4.498-37.368-21.867-51.977-50.046-2.497-4.818-4.836-9.863-7.021-15.103 18.701-3.828 38.629-6.118 58.997-6.684v71.833zm0-91.845c-22.993.583-45.212 3.176-65.977 7.619-8.388-26.316-13.246-56.366-14.094-87.928h80.071zm0-100.309h-80.071c.849-31.588 5.714-61.661 14.114-87.993 20.854 4.469 43.122 7.087 65.956 7.68v80.313zm0-100.322c-20.439-.557-40.34-2.814-59.017-6.636 2.19-5.257 4.536-10.318 7.041-15.15 14.608-28.18 32.773-45.548 51.977-50.046v71.832zm20-71.834c19.212 4.497 37.38 21.866 51.985 50.047 2.497 4.817 4.835 9.863 7.019 15.102-18.703 3.829-38.634 6.119-59.004 6.685zm29.068 361.296c-9.536 2.067-19.259 3.374-29.068 3.903v-72.716c9.797.267 19.518.928 29.068 1.974zm46.168-119.68h-36.168c-5.522 0-10 4.477-10 10v22.724c-9.568-.989-19.287-1.608-29.068-1.861v-80.322h80.056c-.457 16.937-2.061 33.509-4.82 49.459zm-75.236-69.46v-80.31c22.995-.583 45.216-3.177 65.982-7.62 8.385 26.315 13.24 56.364 14.088 87.93zm78.671-111.731c-2.735-6.827-5.711-13.372-8.929-19.581-6.629-12.792-14.039-23.736-22.051-32.719 25.038 8.317 47.696 21.894 66.658 39.413-10.905 5.022-22.895 9.34-35.678 12.887zm6.743 18.978c15.698-4.457 30.343-10.045 43.578-16.699 25.614 29.744 41.862 67.767 44.115 109.451h-73.028c-.848-33.099-5.904-64.771-14.665-92.752zm62.543 226.486-16.305-10.047c-3.216-1.981-7.274-1.982-10.492 0l-16.304 10.046v-44.273h43.101zm15.545-64.273h-68.013c2.604-16.016 4.134-32.574 4.572-49.46h73.046c-.911 16.919-4.127 33.492-9.605 49.46z"/><path d="m414.662 490.5c-5.522 0-10 4.477-10 10s4.478 10 10 10h.057c5.522 0 9.972-4.477 9.972-10s-4.506-10-10.029-10z"/></g></g></svg>