<svg id="Capa_1" enable-background="new 0 0 512 512" height="512" viewBox="0 0 512 512" width="512" xmlns="http://www.w3.org/2000/svg"><g><path d="m164.752 295.629v-29.424h-93.488v63.072h22.791c-1.19-2.891-1.871-6.038-1.871-9.326 0-6.69 2.75-12.785 7.143-17.179 4.422-4.422 10.489-7.143 17.179-7.143zm101.453 51.647v93.488h63.072v-22.819c-2.891 1.219-6.038 1.871-9.326 1.871-6.69 0-12.784-2.721-17.178-7.143-4.422-4.394-7.143-10.489-7.143-17.179v-48.218zm-14.996 93.488v-93.488h-7.568c-4.649 0-9.837-.708-14.968-3.146-5.215-2.438-10.148-6.548-14.059-13.21-3.628-6.208-8.873-11.311-15.166-14.854-6.123-3.486-13.267-5.442-20.863-5.442h-62.079c-2.551 0-4.876 1.049-6.577 2.75-1.672 1.701-2.722 4.025-2.722 6.577 0 2.551 1.049 4.875 2.722 6.576 1.701 1.701 4.025 2.749 6.577 2.749h54.652c4.139 0 7.483 3.345 7.483 7.484 0 4.167-3.345 7.512-7.483 7.512-35.802 0-71.605 0-107.406 0h-17.008c-2.551 0-4.875 1.049-6.577 2.75-1.672 1.701-2.749 4.025-2.749 6.576s1.077 4.876 2.749 6.577c1.701 1.701 4.167 2.778 6.577 2.75h83.509c4.167 0 7.512 3.345 7.512 7.483s-3.345 7.512-7.512 7.512c-35.292 0-70.612 0-105.932 0-2.551 0-4.876 1.049-6.577 2.75-1.701 1.673-2.75 4.025-2.75 6.577s1.049 4.875 2.75 6.576c1.701 1.672 4.025 2.75 6.577 2.75h105.932c4.167 0 7.512 3.345 7.512 7.483 0 4.139-3.345 7.512-7.512 7.512h-94.451c-2.551 0-4.875 1.049-6.576 2.721-1.701 1.701-2.75 4.025-2.75 6.604 0 2.551 1.049 4.876 2.75 6.577 1.701 1.672 4.025 2.721 6.576 2.721h39.374 55.078c4.167 0 7.512 3.373 7.512 7.512s-3.345 7.512-7.512 7.512h-55.078c-2.551 0-4.875 1.049-6.576 2.722-1.701 1.701-2.75 4.025-2.75 6.577s1.049 4.904 2.75 6.576c1.701 1.701 4.025 2.75 6.576 2.75h41.5c4.139 0 7.512 3.373 7.512 7.512s-3.373 7.483-7.512 7.483h-41.5c-6.689 0-12.785-2.721-17.178-7.115-4.394-4.422-7.143-10.488-7.143-17.206 0-3.289.68-6.435 1.871-9.298h-16.924c-6.689 0-12.784-2.749-17.178-7.143-4.422-4.422-7.144-10.488-7.144-17.178 0-4.167 1.049-8.05 2.892-11.48-2.722-1.219-5.159-2.92-7.229-4.99-4.393-4.424-7.143-10.489-7.143-17.179 0-6.718 2.75-12.784 7.144-17.178 4.394-4.422 10.46-7.143 17.15-7.143-1.19-2.892-1.871-6.038-1.871-9.327 0-6.69 2.75-12.784 7.143-17.178 4.422-4.422 10.488-7.143 17.178-7.143h9.496v-86.939c0-3.26-.737-6.208-2.154-9.014-1.502-3.034-3.827-5.982-6.746-8.93-4.28-4.337-7.909-9.439-10.432-15.08-2.381-5.357-3.742-11.14-3.742-17.179v-41.471c0-4.167 3.374-7.512 7.512-7.512 4.139 0 7.484 3.345 7.484 7.512v41.471c0 3.913.878 7.654 2.409 11.084 1.729 3.855 4.309 7.455 7.427 10.602 3.997 4.054 7.229 8.249 9.525 12.841 2.41 4.847 3.742 10.006 3.742 15.676v8.873h93.488v-7.568c0-4.649.708-9.837 3.118-14.968 2.438-5.215 6.548-10.148 13.238-14.059 6.179-3.628 11.31-8.873 14.854-15.166 3.458-6.122 5.414-13.267 5.414-20.863v-6.35-55.729c0-2.551-1.049-4.876-2.75-6.577-1.673-1.672-3.997-2.721-6.577-2.721-2.551 0-4.876 1.049-6.576 2.721-1.672 1.701-2.721 4.025-2.721 6.577v54.652c0 4.139-3.374 7.483-7.512 7.483-4.139 0-7.512-3.345-7.512-7.483 0-35.802 0-71.604 0-107.406v-17.01c0-2.551-1.049-4.875-2.721-6.577-1.701-1.672-4.025-2.75-6.576-2.75-2.58 0-4.904 1.077-6.577 2.75-1.701 1.701-2.75 4.025-2.75 6.577v83.51c0 4.167-3.373 7.512-7.512 7.512s-7.483-3.345-7.483-7.512c0-35.292 0-70.612 0-105.932 0-2.551-1.077-4.876-2.749-6.577-1.701-1.701-4.025-2.75-6.577-2.75-2.551 0-4.904 1.049-6.576 2.75-1.701 1.701-2.749 4.026-2.749 6.577v105.932c0 4.167-3.374 7.512-7.513 7.512-4.138 0-7.483-3.345-7.483-7.512v-94.452c0-2.551-1.049-4.875-2.749-6.576-1.701-1.701-4.025-2.75-6.576-2.75s-4.876 1.048-6.577 2.75c-1.701 1.701-2.75 4.025-2.75 6.576v39.374 55.078c0 4.167-3.345 7.512-7.512 7.512-4.139 0-7.483-3.345-7.483-7.512v-55.078c0-2.551-1.049-4.876-2.75-6.576-1.701-1.701-4.025-2.749-6.577-2.749-2.551 0-4.875 1.049-6.576 2.749-1.701 1.701-2.75 4.025-2.75 6.576v41.5c0 4.139-3.345 7.512-7.484 7.512-4.138 0-7.512-3.373-7.512-7.512v-41.5c0-6.689 2.749-12.785 7.144-17.178 4.394-4.394 10.488-7.143 17.178-7.143 3.288 0 6.463.68 9.327 1.871v-16.924c0-6.69 2.721-12.784 7.143-17.178 4.394-4.422 10.488-7.143 17.178-7.143 4.138 0 8.05 1.049 11.452 2.892 1.219-2.721 2.92-5.159 5.018-7.228 4.391-4.395 10.486-7.145 17.176-7.145s12.784 2.75 17.178 7.144c4.394 4.393 7.115 10.46 7.143 17.15 2.864-1.191 6.01-1.871 9.327-1.871 6.689 0 12.756 2.75 17.178 7.143 4.394 4.422 7.144 10.488 7.144 17.178v9.496h86.911c3.26 0 6.236-.737 9.015-2.154 3.033-1.502 5.981-3.827 8.958-6.746 4.337-4.28 9.411-7.909 15.08-10.432 5.358-2.381 11.112-3.742 17.15-3.742h41.5c4.139 0 7.484 3.373 7.484 7.512s-3.345 7.483-7.484 7.483h-41.5c-3.912 0-7.625.879-11.055 2.41-3.884 1.729-7.483 4.309-10.63 7.427-4.025 3.997-8.221 7.229-12.812 9.525-4.848 2.41-10.007 3.742-15.705 3.742h-8.873v93.488h7.568c4.649 0 9.836.708 14.996 3.118 5.187 2.438 10.12 6.548 14.031 13.238 3.628 6.179 8.901 11.311 15.166 14.854 6.122 3.458 13.295 5.414 20.863 5.414h6.35 55.73c2.551 0 4.876-1.049 6.576-2.749 1.701-1.672 2.75-3.997 2.75-6.577 0-2.551-1.049-4.875-2.75-6.576-1.701-1.672-4.025-2.721-6.576-2.721h-54.626c-4.167 0-7.512-3.374-7.512-7.512s3.345-7.512 7.512-7.512h107.406 16.98c2.551 0 4.875-1.049 6.577-2.721 1.701-1.701 2.75-4.025 2.75-6.576 0-2.58-1.049-4.904-2.75-6.577-1.701-1.701-4.167-2.807-6.577-2.75h-83.509c-4.139 0-7.512-3.373-7.512-7.512s3.374-7.483 7.512-7.483h105.932c2.551 0 4.904-1.077 6.577-2.75 1.701-1.701 2.749-4.025 2.749-6.577 0-2.551-1.049-4.904-2.749-6.576-1.673-1.701-4.025-2.75-6.577-2.75-35.292 0-70.612 0-105.932 0-4.139 0-7.512-3.373-7.512-7.512s3.374-7.484 7.512-7.484h94.48c2.551 0 4.875-1.049 6.576-2.75 1.673-1.701 2.722-4.025 2.722-6.576s-1.049-4.876-2.722-6.577c-1.701-1.701-4.025-2.749-6.576-2.749h-39.402-55.078c-4.139 0-7.512-3.345-7.512-7.512 0-4.139 3.374-7.483 7.512-7.483h55.078c2.551 0 4.904-1.049 6.576-2.75 1.701-1.701 2.75-4.025 2.75-6.577 0-2.551-1.049-4.875-2.75-6.576-1.672-1.701-4.025-2.75-6.576-2.75h-41.5c-4.139 0-7.483-3.345-7.483-7.483 0-4.139 3.345-7.512 7.483-7.512h41.5c6.718 0 12.784 2.75 17.178 7.144 4.422 4.394 7.144 10.488 7.144 17.178 0 3.288-.652 6.463-1.843 9.327h16.923c6.689 0 12.756 2.721 17.178 7.143 4.394 4.394 7.144 10.488 7.144 17.178 0 4.138-1.049 8.05-2.892 11.452 2.693 1.219 5.131 2.92 7.228 5.018 4.393 4.394 7.115 10.488 7.115 17.178s-2.722 12.784-7.115 17.178c-4.422 4.394-10.488 7.115-17.178 7.143 1.219 2.864 1.871 6.01 1.871 9.327 0 6.689-2.721 12.756-7.143 17.178-4.394 4.394-10.488 7.144-17.178 7.144h-9.496v70.555 16.356c0 3.26.766 6.237 2.155 9.015 1.53 3.033 3.826 5.981 6.746 8.958 4.309 4.337 7.909 9.411 10.432 15.08 2.381 5.358 3.742 11.112 3.742 17.15v41.499c0 4.139-3.345 7.484-7.483 7.484-4.139 0-7.512-3.345-7.512-7.484v-41.499c0-3.913-.878-7.626-2.409-11.056-1.701-3.884-4.309-7.483-7.427-10.63-3.969-4.025-7.201-8.221-9.496-12.813-2.438-4.847-3.742-10.006-3.742-15.704v-8.873h-93.488v7.568c0 4.649-.708 9.837-3.146 14.996-2.438 5.187-6.548 10.12-13.209 14.031-6.208 3.628-11.311 8.901-14.854 15.166-3.487 6.122-5.443 13.295-5.443 20.863v6.35 55.729c0 2.551 1.049 4.876 2.749 6.577 1.701 1.701 4.025 2.75 6.577 2.75s4.876-1.049 6.577-2.75 2.749-4.025 2.749-6.577v-54.626c0-4.167 3.345-7.512 7.483-7.512 4.167 0 7.512 3.345 7.512 7.512v107.406 16.98c0 2.551 1.049 4.876 2.749 6.577 1.701 1.701 4.025 2.75 6.576 2.75s4.876-1.049 6.577-2.75 2.778-4.167 2.749-6.577v-83.509c0-4.139 3.345-7.512 7.484-7.512s7.512 3.374 7.512 7.512v105.932c0 2.551 1.049 4.904 2.75 6.576 1.672 1.701 4.025 2.75 6.576 2.75s4.875-1.049 6.576-2.75c1.673-1.672 2.75-4.025 2.75-6.576 0-35.292 0-70.612 0-105.932 0-4.139 3.345-7.512 7.483-7.512 4.139 0 7.512 3.374 7.512 7.512v94.479c0 2.551 1.049 4.875 2.721 6.576 1.701 1.673 4.025 2.722 6.605 2.722 2.551 0 4.875-1.049 6.576-2.722 1.672-1.701 2.721-4.025 2.721-6.576v-39.402-55.078c0-4.139 3.374-7.512 7.512-7.512 4.139 0 7.512 3.374 7.512 7.512v55.078c0 2.551 1.048 4.904 2.721 6.577 1.701 1.7 4.026 2.749 6.577 2.749s4.904-1.049 6.576-2.749c1.701-1.673 2.75-4.026 2.75-6.577v-41.5c0-4.139 3.374-7.483 7.512-7.483s7.483 3.345 7.483 7.483v41.5c0 6.718-2.721 12.785-7.115 17.178-4.422 4.422-10.488 7.143-17.207 7.143-3.288 0-6.435-.652-9.298-1.842v16.923c0 6.69-2.75 12.756-7.143 17.178-4.422 4.395-10.488 7.144-17.178 7.144-4.167 0-8.051-1.049-11.48-2.891-1.219 2.693-2.92 5.13-4.99 7.228-4.422 4.393-10.488 7.115-17.178 7.115-6.718 0-12.784-2.722-17.178-7.115-4.422-4.422-7.144-10.489-7.144-17.178-2.892 1.219-6.038 1.871-9.326 1.871-6.69 0-12.784-2.722-17.178-7.143-4.422-4.394-7.144-10.488-7.144-17.178v-9.496h-70.555-16.384c-3.26 0-6.208.766-9.015 2.154-3.033 1.531-5.981 3.827-8.929 6.747-4.337 4.309-9.439 7.909-15.08 10.432-5.357 2.381-11.14 3.742-17.178 3.742h-41.472c-4.167 0-7.512-3.345-7.512-7.483 0-4.139 3.345-7.512 7.512-7.512h41.472c3.912 0 7.654-.879 11.083-2.41 3.855-1.701 7.455-4.309 10.602-7.427 4.054-3.969 8.249-7.2 12.841-9.496 4.847-2.438 10.007-3.742 15.676-3.742h8.873zm-5.414-276.012v-93.488h-63.043v22.79c2.863-1.19 6.009-1.871 9.297-1.871 6.719 0 12.785 2.749 17.207 7.143 4.394 4.422 7.115 10.489 7.115 17.179v48.246h29.424zm101.481 81.043h93.488v-63.043h-22.819c1.219 2.863 1.871 6.009 1.871 9.297 0 6.719-2.722 12.785-7.143 17.207-4.394 4.394-10.489 7.115-17.178 7.115h-48.218v29.424zm-51.647 86.486c.198-9.751 2.863-18.993 7.427-27.043 4.847-8.589 11.82-15.761 20.296-20.721 3.77-2.211 5.981-4.819 7.257-7.512 1.275-2.722 1.672-5.783 1.672-8.646v-51.988c-9.751-.198-18.993-2.863-27.043-7.398-8.589-4.847-15.761-11.849-20.721-20.296-2.211-3.77-4.819-6.01-7.512-7.257-2.722-1.304-5.783-1.672-8.646-1.672h-15.052-36.936c-.198 9.723-2.863 18.964-7.398 27.043-4.847 8.561-11.849 15.761-20.296 20.721-3.77 2.211-6.009 4.819-7.257 7.483-1.304 2.75-1.672 5.783-1.672 8.646v15.08 36.908c9.723.198 18.964 2.863 27.043 7.427 8.561 4.847 15.761 11.82 20.721 20.296 2.211 3.77 4.819 5.981 7.484 7.257 2.75 1.275 5.783 1.672 8.646 1.672h15.08z"/></g></svg>