<svg id="Layer_5" enable-background="new 0 0 64 64" height="512" viewBox="0 0 64 64" width="512" xmlns="http://www.w3.org/2000/svg"><g><g><g><path d="m10 6c0 2.21 1.79 4 4 4-4.42 0-8 3.58-8 8h-2c-1.1 0-2-.9-2-2v-10c0-1.1.9-2 2-2h6.54c-.34.59-.54 1.27-.54 2z" fill="#e6e9ed"/></g><g><path d="m26 11v5c0 1.1-.9 2-2 2h-2c0-2.21-.9-4.21-2.34-5.66-1.45-1.44-3.45-2.34-5.66-2.34 2.21 0 4-1.79 4-4 0-.73-.2-1.41-.54-2h6.54c1.1 0 2 .9 2 2z" fill="#e6e9ed"/></g><g><path d="m22 18h-8-8c0-4.42 3.58-8 8-8 2.21 0 4.21.9 5.66 2.34 1.44 1.45 2.34 3.45 2.34 5.66z" fill="#b4dd7f"/></g><g><path d="m17.46 4c.34.59.54 1.27.54 2 0 2.21-1.79 4-4 4s-4-1.79-4-4c0-.73.2-1.41.54-2 .69-1.2 1.98-2 3.46-2s2.77.8 3.46 2z" fill="#f0d0b4"/></g><g><path d="m38 12v-4-4c0-1.1.9-2 2-2h20c1.1 0 2 .9 2 2v8c0 1.1-.9 2-2 2h-7l-1.68 5.05c-.19.57-.72.95-1.32.95s-1.13-.38-1.32-.95l-1.68-5.05h-7c-1.1 0-2-.9-2-2z" fill="#e6e9ed"/></g><g><path d="m21 54c2.21 0 4 1.79 4 4s-1.79 4-4 4h-14c-2.21 0-4-1.79-4-4 0-2 1.47-3.64 3.38-3.94.94-2.36 3.55-4.06 6.62-4.06.34 0 .67.02.99.06 2.71.33 4.91 1.98 5.7 4.18.41-.15.85-.24 1.31-.24z" fill="#e6e9ed"/></g><g><circle cx="14" cy="32" fill="#fcd770" r="2"/></g><g><circle cx="32" cy="32" fill="#69d6f4" r="12"/></g><g><circle cx="50" cy="32" fill="#fcd770" r="2"/></g><g><path d="m62 47.21-2.67 2.79c-5.15-5.4-13.51-5.4-18.66 0l-2.67-2.79c3.32-3.47 7.66-5.21 12-5.21s8.68 1.74 12 5.21z" fill="#ff826e"/></g><g><path d="m57 53.05-2.8 2.95c-2.32-2.44-6.08-2.44-8.4 0l-2.8-2.95c3.87-4.07 10.13-4.07 14 0z" fill="#ff826e"/></g><g><circle cx="50" cy="60" fill="#ff826e" r="2"/></g></g><g><path d="m50 57c-1.654 0-3 1.346-3 3s1.346 3 3 3 3-1.346 3-3-1.346-3-3-3zm0 4c-.551 0-1-.448-1-1s.449-1 1-1 1 .448 1 1-.449 1-1 1z"/><path d="m62.723 46.517c-3.158-3.309-7.292-5.213-11.723-5.466v-6.235c1.161-.414 2-1.514 2-2.816s-.839-2.402-2-2.816v-8.409c.585-.27 1.052-.767 1.265-1.407l1.456-4.368h6.279c1.654 0 3-1.346 3-3v-8c0-1.654-1.346-3-3-3h-20c-1.654 0-3 1.346-3 3v3h-1c-1.654 0-3 1.346-3 3v9.051c-.331-.026-.662-.051-1-.051s-.669.025-1 .051v-6.051c0-1.654-1.346-3-3-3h-1v-4c0-1.654-1.346-3-3-3h-6.026c-.913-1.207-2.347-2-3.974-2s-3.061.793-3.974 2h-6.026c-1.654 0-3 1.346-3 3v10c0 1.654 1.346 3 3 3h9v10.184c-1.161.414-2 1.514-2 2.816s.839 2.402 2 2.816v14.184c-3.19 0-6.061 1.664-7.324 4.191-2.16.586-3.676 2.528-3.676 4.809 0 2.757 2.243 5 5 5h14c2.414 0 4.434-1.721 4.899-4h2.101c1.654 0 3-1.346 3-3v-11.051c.331.026.662.051 1 .051s.669-.025 1-.051v13.051c0 1.654 1.346 3 3 3h9v-2h-9c-.551 0-1-.448-1-1v-13.363c5.409-1.285 9.513-5.95 9.949-11.637h2.235c.302.847.969 1.514 1.816 1.816v6.235c-4.431.253-8.565 2.157-11.723 5.466l-.659.69 4.049 4.241.723-.758c2.303-2.412 5.36-3.74 8.61-3.74s6.308 1.328 8.61 3.74l.723.758 4.049-4.241zm-12.723-13.517c-.551 0-1-.448-1-1s.449-1 1-1 1 .448 1 1-.449 1-1 1zm-11-29c0-.552.449-1 1-1h20c.551 0 1 .448 1 1v8c0 .552-.449 1-1 1h-7.721l-1.912 5.735c-.105.316-.63.316-.735 0l-1.911-5.735h-7.721c-.551 0-1-.448-1-1zm-4 6c0-.552.449-1 1-1h1v3c0 1.654 1.346 3 3 3h6.279l1.456 4.368c.214.64.68 1.137 1.265 1.407v8.409c-.847.302-1.514.969-1.816 1.816h-2.235c-.436-5.687-4.54-10.352-9.949-11.637zm-3 33c-1.075 0-2.22-1.527-3.009-4h6.018c-.789 2.473-1.934 4-3.009 4zm3.009-18h-6.018c.789-2.473 1.935-4 3.009-4s2.22 1.527 3.009 4zm.705-3.341c1.874.675 3.518 1.834 4.764 3.341h-3.374c-.367-1.295-.837-2.422-1.39-3.341zm-.195 5.341c.244 1.209.408 2.553.46 4h-7.958c.052-1.447.217-2.791.46-4zm-8.624-2h-3.374c1.246-1.507 2.891-2.666 4.764-3.341-.552.919-1.022 2.046-1.39 3.341zm-4.681 2h4.217c-.225 1.237-.364 2.581-.409 4h-4.971c.129-1.43.537-2.779 1.163-4zm3.808 6c.046 1.419.184 2.763.409 4h-4.217c-.626-1.221-1.034-2.57-1.164-4zm.873 6c.368 1.295.838 2.422 1.391 3.341-1.874-.675-3.518-1.834-4.764-3.341zm1.586-2c-.244-1.209-.408-2.553-.46-4h7.958c-.052 1.447-.217 2.791-.46 4zm9.497-4h4.971c-.13 1.43-.537 2.779-1.164 4h-4.217c.226-1.237.365-2.581.41-4zm0-2c-.046-1.419-.184-2.763-.409-4h4.217c.626 1.221 1.034 2.57 1.164 4zm-13.978-26c.551 0 1 .448 1 1v10c0 .552-.449 1-1 1h-1.059c-.37-3.333-2.567-6.118-5.564-7.337.991-.914 1.623-2.212 1.623-3.663 0-.342-.035-.677-.101-1zm-3.08 12h-13.84c.488-3.386 3.401-6 6.92-6s6.432 2.614 6.92 6zm-6.92-14c1.654 0 3 1.346 3 3s-1.346 3-3 3-3-1.346-3-3 1.346-3 3-3zm-11 13v-10c0-.552.449-1 1-1h5.101c-.066.323-.101.658-.101 1 0 1.451.632 2.749 1.623 3.663-2.997 1.219-5.194 4.004-5.564 7.337h-1.059c-.551 0-1-.448-1-1zm21 3c1.654 0 3-1.346 3-3v-4h1c.551 0 1 .448 1 1v6.363c-5.409 1.285-9.513 5.95-9.949 11.637h-2.235c-.302-.847-.969-1.514-1.816-1.816v-10.184zm-10 12c.551 0 1 .448 1 1s-.449 1-1 1-1-.448-1-1 .449-1 1-1zm7 30h-14c-1.654 0-3-1.346-3-3 0-1.479 1.066-2.72 2.535-2.949l.563-.089.211-.529c.818-2.053 3.106-3.433 5.691-3.433 2.632 0 4.997 1.47 5.75 3.574l.334.934.936-.326c.352-.122.671-.182.98-.182 1.654 0 3 1.346 3 3s-1.346 3-3 3zm8-5c0 .552-.449 1-1 1h-2.101c-.465-2.279-2.484-4-4.899-4-.245 0-.489.02-.736.061-1.01-1.925-2.952-3.31-5.264-3.828v-14.417c.847-.302 1.514-.969 1.816-1.816h2.235c.436 5.687 4.54 10.352 9.949 11.637zm6.714-13.659c.553-.919 1.023-2.046 1.391-3.341h3.374c-1.247 1.507-2.891 2.666-4.765 3.341zm23.594 6.237c-2.582-2.347-5.85-3.628-9.308-3.628s-6.726 1.281-9.308 3.628l-1.291-1.352c2.925-2.732 6.654-4.226 10.599-4.226s7.674 1.494 10.599 4.227z"/><path d="m50 49c-2.921 0-5.665 1.194-7.726 3.364l-.654.688 4.179 4.399.725-.764c.931-.979 2.166-1.52 3.475-1.52s2.544.54 3.475 1.52l.725.764 4.179-4.399-.654-.688c-2.059-2.17-4.803-3.364-7.724-3.364zm4.147 5.604c-1.191-.931-2.631-1.435-4.147-1.435s-2.956.504-4.147 1.435l-1.44-1.516c1.578-1.353 3.53-2.088 5.587-2.088s4.009.735 5.587 2.088z"/><path d="m41 5h2v2h-2z"/><path d="m45 5h14v2h-14z"/><path d="m57 9h2v2h-2z"/><path d="m41 9h2v2h-2z"/><path d="m45 9h2v2h-2z"/><path d="m53 9h2v2h-2z"/><path d="m49 9h2v2h-2z"/></g></g></svg>